<?xml version="1.0" encoding="UTF-8"?>
<!DOCTYPE svg PUBLIC "-//W3C//DTD SVG 1.1//EN" "http://www.w3.org/Graphics/SVG/1.1/DTD/svg11.dtd">
<svg xmlns="http://www.w3.org/2000/svg" version="1.1" style="shape-rendering:geometricPrecision; text-rendering:geometricPrecision; image-rendering:optimizeQuality; fill-rule:evenodd; clip-rule:evenodd" xmlns:xlink="http://www.w3.org/1999/xlink" viewBox="0 0 512 512">
<g><path style="opacity:0.958" fill="#5181f4" d="M 224.5,99.5 C 244.409,99.1736 264.243,99.5069 284,100.5C 305.627,151.749 326.127,203.416 345.5,255.5C 374.047,246.039 402.38,235.872 430.5,225C 441.49,219.507 452.157,213.507 462.5,207C 477.027,196.306 491.694,185.806 506.5,175.5C 507.086,175.709 507.586,176.043 508,176.5C 509.928,189.707 508.261,202.374 503,214.5C 488.733,238.767 469.233,257.601 444.5,271C 438.725,274.439 432.725,277.439 426.5,280C 433.594,279.939 440.594,278.939 447.5,277C 459.731,272.88 471.397,267.713 482.5,261.5C 482.036,286.114 471.036,304.281 449.5,316C 430.475,325.341 410.475,331.675 389.5,335C 404.997,337.236 420.33,336.402 435.5,332.5C 429.141,357.349 413.141,371.516 387.5,375C 371.821,377.252 356.154,379.585 340.5,382C 328.347,384.578 317.347,389.578 307.5,397C 302.76,402.364 297.927,407.531 293,412.5C 265.899,382.376 261.066,348.876 278.5,312C 263.167,311.333 247.833,311.333 232.5,312C 249.934,348.876 245.101,382.376 218,412.5C 213.073,407.531 208.24,402.364 203.5,397C 193.653,389.578 182.653,384.578 170.5,382C 154.846,379.585 139.179,377.252 123.5,375C 97.8587,371.516 81.8587,357.349 75.5,332.5C 90.6699,336.402 106.003,337.236 121.5,335C 104.3,332.2 87.6331,327.534 71.5,321C 53.2495,313.802 40.0828,301.302 32,283.5C 29.4757,276.379 28.309,269.046 28.5,261.5C 39.6025,267.713 51.2692,272.88 63.5,277C 70.4063,278.939 77.4063,279.939 84.5,280C 59.1508,268.576 37.3175,252.409 19,231.5C 12.7035,223.242 7.70347,214.242 4,204.5C 2.26221,194.984 2.09554,185.484 3.5,176C 5.8072,176.642 8.14053,177.642 10.5,179C 35.8835,200.369 63.8835,217.702 94.5,231C 117.433,238.477 140.1,246.644 162.5,255.5C 183.119,203.577 203.786,151.577 224.5,99.5 Z M 253.5,167.5 C 264.741,198.878 276.408,230.211 288.5,261.5C 265.174,262.666 241.84,262.833 218.5,262C 230.465,230.604 242.132,199.104 253.5,167.5 Z"/></g>
</svg>
